<svg xmlns="http://www.w3.org/2000/svg" viewBox="0 0 245 240"><path fill="#5865F2" d="M104.4 104.3c-5.7 0-10.2 5-10.2 11.1s4.6 11.1 10.2 11.1c5.7 0 10.2-5 10.2-11.1.1-6.1-4.5-11.1-10.2-11.1zm36.2 0c-5.7 0-10.2 5-10.2 11.1s4.6 11.1 10.2 11.1c5.7 0 10.2-5 10.2-11.1 0-6.1-4.5-11.1-10.2-11.1z"/><path fill="#5865F2" d="M189.5 20h-134C44.2 20 36 28.2 36 38.5v134C36 182.8 44.2 191 54.5 191h113.4l-5.3-18.3 12.8 11.9 12.1 11.2 21.5 19V38.5C209 28.2 200.8 20 190.5 20h-1zM155.2 151s-4.3-5.1-7.9-9.6c15.7-4.5 21.7-14.4 21.7-14.4-4.9 3.2-9.6 5.4-13.8 6.9-6 2.5-11.7 4.1-17.3 5-11.5 2.2-22 1.6-31.1-.1-6.8-1.3-12.7-3.2-17.6-5-2.8-1.1-5.8-2.4-8.8-4.1-.4-.2-.8-.3-1.2-.5-.3-.1-.5-.2-.7-.3-.3-.1-.5-.3-.7-.4-3.1-1.7-4.8-2.9-4.8-2.9s5.8 9.8 21.2 14.3c-3.6 4.6-8 10-8 10-26.5-.8-36.6-18.2-36.6-18.2 0-38.5 17.3-69.7 17.3-69.7 17.3-12.9 33.8-12.5 33.8-12.5l1.2 1.4c-21.7 6.3-31.6 15.8-31.6 15.8s2.6-1.4 7-3.3c12.6-5.5 22.6-7 26.7-7.3.7-.1 1.3-.2 2-.2 7.2-.9 15.2-1.1 23.6-.2 11.1 1.3 23 3.8 35.1 9.4 0 0-9.5-9.1-30.1-15.4l1.7-1.9s16.5-.4 33.8 12.5c0 0 17.3 31.2 17.3 69.7 0 0-10.2 17.4-36.7 18.2z"/></svg>