<svg xmlns="http://www.w3.org/2000/svg" viewBox="0 0 576 512"><path fill="#FF0000" d="M549.655 124.083c-6.281-23.65-24.787-42.276-48.284-48.597C458.838 64 288 64 288 64S117.163 64 74.629 75.486c-23.497 6.321-42.003 24.947-48.284 48.597C14.857 167.6 14.857 256 14.857 256s0 88.4 11.488 131.917c6.281 23.65 24.787 42.276 48.284 48.597C117.163 448 288 448 288 448s170.837 0 213.371-11.486c23.497-6.321 42.003-24.947 48.284-48.597C561.143 344.4 561.143 256 561.143 256s0-88.4-11.488-131.917zM232.091 338.26V173.74L377.25 256 232.091 338.26z"/></svg>